<svg width="448" height="39" viewBox="0 0 448 39" fill="none" xmlns="http://www.w3.org/2000/svg">
<rect width="448" height="7.21297" rx="1" transform="matrix(-1 -8.74228e-08 -8.74228e-08 1 448 31.3195)" fill="#9C6C46"/>
<rect width="448" height="7.21297" rx="1" transform="matrix(-1 -8.74228e-08 -8.74228e-08 1 448 0)" fill="#9C6C46"/>
<rect width="41.7255" height="24.1065" transform="matrix(-1 -8.74228e-08 -8.74228e-08 1 437.752 7.21301)" fill="#9C6C46"/>
<rect width="41.7255" height="3.7963" transform="matrix(-1 -8.74228e-08 -8.74228e-08 1 437.752 7.21301)" fill="#85583B"/>
<rect width="41.7255" height="3.7963" transform="matrix(-1 -8.74228e-08 -8.74228e-08 1 437.752 27.5232)" fill="#85583B"/>
<rect width="41.7255" height="24.1065" transform="matrix(-1 -8.74228e-08 -8.74228e-08 1 244.863 7.21301)" fill="#9C6C46"/>
<rect width="41.7255" height="3.7963" transform="matrix(-1 -8.74228e-08 -8.74228e-08 1 244.863 7.21301)" fill="#85583B"/>
<rect width="41.7255" height="3.7963" transform="matrix(-1 -8.74228e-08 -8.74228e-08 1 244.863 27.5232)" fill="#85583B"/>
<rect width="41.7255" height="24.1065" transform="matrix(-1 -8.74228e-08 -8.74228e-08 1 51.9739 7.21301)" fill="#9C6C46"/>
<rect width="41.7255" height="3.7963" transform="matrix(-1 -8.74228e-08 -8.74228e-08 1 51.9739 7.21301)" fill="#85583B"/>
<rect width="41.7255" height="3.7963" transform="matrix(-1 -8.74228e-08 -8.74228e-08 1 51.9739 27.5232)" fill="#85583B"/>
</svg>
